<?xml version="1.0" encoding="UTF-8"?>
<svg version="1.1" xmlns="http://www.w3.org/2000/svg" width="500" height="500">
<path d="M0 0 C1.33523305 0.00003379 2.67046611 0.00000548 4.00569916 -0.00008392 C44.52232175 -0.00211647 84.97205167 0.34911805 125.45581055 2.05145264 C129.96755574 2.23431466 134.48005337 2.39050901 138.99282837 2.54553223 C143.24634894 2.69309541 147.49940016 2.8516418 151.75238037 3.01397705 C153.64245807 3.08547056 155.53263244 3.15447413 157.4229126 3.22039795 C167.0655525 3.5657192 176.56469515 4.27748518 186.125 5.61328125 C186.98946747 5.73323959 187.85393494 5.85319794 188.74459839 5.97679138 C200.45991753 7.73034269 210.19829088 12.25983597 219.8125 19.1875 C220.87404297 19.93580078 220.87404297 19.93580078 221.95703125 20.69921875 C240.9202171 35.54810392 246.15649501 63.68923852 249.12304688 86.11035156 C249.83100685 92.12434318 250.35330365 98.15001255 250.8125 104.1875 C250.86470703 104.86598999 250.91691406 105.54447998 250.97070312 106.24353027 C255.6425966 168.46695098 257.83365143 236.44465167 247.8125 298.1875 C247.67618164 299.0316748 247.53986328 299.87584961 247.39941406 300.74560547 C243.78120463 322.14150672 236.92277569 342.84326316 219.8125 357.1875 C199.8670859 371.27614162 174.96790531 371.57944846 151.4375 372.75 C150.27012299 372.81031403 149.10274597 372.87062805 147.8999939 372.93276978 C72.9942686 376.77715192 -1.96483043 377.12220792 -76.9375 375.3125 C-78.18540062 375.28292961 -78.18540062 375.28292961 -79.45851135 375.25276184 C-98.59687374 374.79773046 -117.7158409 374.13074224 -136.8359375 373.171875 C-137.67812584 373.12968967 -138.52031418 373.08750435 -139.38802338 373.04404068 C-199.3371075 370.00943881 -199.3371075 370.00943881 -219.9375 351.75 C-236.4655177 332.92642429 -241.46752612 309.48285994 -244.1875 285.1875 C-244.28514648 284.35895508 -244.38279297 283.53041016 -244.48339844 282.67675781 C-247.03808347 260.82000812 -247.3553265 238.91321141 -247.390625 216.9296875 C-247.39345238 215.71501926 -247.39627975 214.50035103 -247.39919281 213.24887466 C-247.41405726 206.8141891 -247.42336566 200.3795252 -247.42773438 193.94482422 C-247.43210624 188.71493505 -247.44596666 183.48521204 -247.46875 178.25537109 C-247.59328415 149.09149059 -247.52763579 120.18918984 -244.1875 91.1875 C-244.06260193 90.08648453 -243.93770386 88.98546906 -243.809021 87.85108948 C-241.09318256 64.3667703 -235.40440623 37.77737793 -217.1875 21.1875 C-201.25832086 9.18660178 -184.80678852 5.36736034 -165.125 4.1875 C-163.82699463 4.10701416 -162.52898926 4.02652832 -161.19165039 3.94360352 C-148.1778596 3.16423437 -135.15138214 2.64156364 -122.125 2.125 C-121.12129364 2.08479736 -120.11758728 2.04459473 -119.08346558 2.00317383 C-111.4524138 1.70116666 -103.82036717 1.43896075 -96.1875 1.1875 C-94.89711823 1.14299713 -93.60673645 1.09849426 -92.2772522 1.05264282 C-61.52346714 0.00366392 -30.76873409 -0.01075799 0 0 Z " fill="#DE2F2F" transform="translate(247.1875,61.8125)"/>
<path d="M0 0 C7.47089636 3.20181273 13.87896404 7.1818414 20.65234375 11.59570312 C24.05329636 13.79697904 27.49121425 15.8821341 31.02197266 17.87231445 C33.40110237 19.22867093 35.75505042 20.62446921 38.109375 22.0234375 C39.02976563 22.57 39.95015625 23.1165625 40.8984375 23.6796875 C42.78450322 24.80099233 44.66993092 25.92337108 46.5546875 27.046875 C53.59166355 31.22201678 60.67837867 35.33918933 68 39 C68 39.66 68 40.32 68 41 C68.69738281 41.25910156 69.39476562 41.51820313 70.11328125 41.78515625 C79.73411051 45.83397614 88.6832383 51.98682761 97.5625 57.44580078 C105.12608814 62.09294723 112.74100584 66.6526812 120.35913086 71.2097168 C125.78909747 74.46154948 131.20751767 77.73040263 136.60546875 81.03515625 C137.65903564 81.6799292 138.71260254 82.32470215 139.7980957 82.98901367 C141.80998036 84.22219696 143.8203031 85.45793301 145.82885742 86.6965332 C146.72838135 87.24784912 147.62790527 87.79916504 148.5546875 88.3671875 C149.34343262 88.85300293 150.13217773 89.33881836 150.94482422 89.83935547 C153.08572988 91.13477486 153.08572988 91.13477486 156 92 C156 92.66 156 93.32 156 94 C155.37996094 94.32871094 154.75992188 94.65742188 154.12109375 94.99609375 C147.89271729 98.34146626 141.81133692 101.87795937 135.76586914 105.53857422 C131.50483484 108.11316205 127.20858447 110.61226726 122.875 113.0625 C117.41430551 116.15712098 112.05796258 119.39748291 106.72265625 122.703125 C101.93610851 125.66320915 97.12752575 128.58652022 92.3125 131.5 C91.4261084 132.04108398 90.5397168 132.58216797 89.62646484 133.13964844 C88.79711426 133.64012695 87.96776367 134.14060547 87.11328125 134.65625 C86.36860596 135.10806641 85.62393066 135.55988281 84.85668945 136.02539062 C83 137 83 137 81 137 C81 137.66 81 138.32 81 139 C78.87767021 140.17176518 76.75242209 141.33754785 74.625 142.5 C74.02171875 142.83386719 73.4184375 143.16773438 72.796875 143.51171875 C68.2265625 146 68.2265625 146 66 146 C66 146.66 66 147.32 66 148 C63.87767021 149.17176518 61.75242209 150.33754785 59.625 151.5 C58.72007812 152.00080078 58.72007812 152.00080078 57.796875 152.51171875 C53.2265625 155 53.2265625 155 51 155 C51 155.66 51 156.32 51 157 C49.87335938 157.54527344 48.74671875 158.09054687 47.5859375 158.65234375 C42.78524134 161.05480017 38.21156738 163.77768517 33.625 166.5625 C32.76447021 167.08118652 31.90394043 167.59987305 31.01733398 168.13427734 C26.62186057 170.78804191 22.24032781 173.46342081 17.87109375 176.16015625 C17.06140137 176.65894287 16.25170898 177.15772949 15.41748047 177.67163086 C13.88421519 178.61788093 12.35316582 179.56773411 10.82470703 180.52172852 C9.78419189 181.16452759 9.78419189 181.16452759 8.72265625 181.8203125 C8.12203369 182.19430176 7.52141113 182.56829102 6.90258789 182.95361328 C4.6989031 184.1655975 2.33510179 185.06595929 0 186 C0 124.62 0 63.24 0 0 Z " fill="#FEFEFD" transform="translate(188,157)"/>
<path d="M0 0 C3.30935537 0.0008202 6.61870735 0.00041948 9.92806256 -0.0006429 C50.89938226 -0.01243804 91.8174364 0.39816838 132.75274658 2.18847656 C132.75274658 2.51847656 132.75274658 2.84847656 132.75274658 3.18847656 C115.1756535 4.91534887 97.37147195 4.51790733 79.73712158 3.96191406 C78.70019417 3.92928467 78.70019417 3.92928467 77.64231873 3.89599609 C76.9319899 3.87359863 76.22166107 3.85120117 75.48980713 3.828125 C31.2816895 2.44031413 -13.02881377 2.85909929 -57.24725342 3.62597656 C-58.39585846 3.64553406 -59.5444635 3.66509155 -60.72787476 3.6852417 C-74.00451731 3.91919241 -87.26896805 4.29473953 -100.53582764 4.86143494 C-105.15320075 5.05473907 -109.74662611 5.20609899 -114.36834717 5.1550293 C-118.04166286 4.90256264 -118.04166286 4.90256264 -120.24725342 6.18847656 C-122.1869672 6.30853203 -124.13068958 6.36581001 -126.07391357 6.39379883 C-127.90558578 6.42371666 -127.90558578 6.42371666 -129.77426147 6.45423889 C-131.11161165 6.47122312 -132.44896317 6.48810193 -133.78631592 6.50488281 C-135.15109894 6.52545259 -136.5158756 6.54644907 -137.88064575 6.56785583 C-141.47433315 6.62307416 -145.06807801 6.67248443 -148.66186523 6.72070312 C-152.32840088 6.77091993 -155.99485298 6.82660505 -159.66131592 6.88183594 C-166.85655768 6.98941456 -174.05186888 7.09086014 -181.24725342 7.18847656 C-181.24725342 6.85847656 -181.24725342 6.52847656 -181.24725342 6.18847656 C-164.45986139 4.0242772 -147.60469738 3.39910138 -130.70825195 2.71875 C-127.72512164 2.597019 -124.74229116 2.46870574 -121.75944042 2.34033489 C-111.92340474 1.91793852 -102.08610601 1.5388989 -92.24725342 1.18847656 C-91.16196539 1.1493685 -91.16196539 1.1493685 -90.05475235 1.10947037 C-60.04274387 0.03730505 -30.0283153 -0.00938517 0 0 Z " fill="#C75F5F" transform="translate(243.24725341796875,61.8115234375)"/>
<path d="M0 0 C0 0.33 0 0.66 0 1 C-14.77459186 3.52531712 -29.41199076 4.81814506 -44.375 5.5625 C-45.54237701 5.62281403 -46.70975403 5.68312805 -47.9125061 5.74526978 C-122.8182314 9.58965192 -197.77733043 9.93470792 -272.75 8.125 C-273.58193375 8.10528641 -274.41386749 8.08557281 -275.27101135 8.06526184 C-294.38535617 7.6108015 -313.48152776 6.94704566 -332.578125 6 C-333.83420185 5.93832327 -333.83420185 5.93832327 -335.11565399 5.87540054 C-347.44732105 5.26319459 -359.73060749 4.4133859 -372 3 C-372 2.67 -372 2.34 -372 2 C-369.04159999 2.12353758 -366.08328074 2.2486496 -363.125 2.375 C-362.12686279 2.41753906 -361.12872559 2.46007812 -360.1003418 2.50390625 C-353.19443096 2.80356902 -346.29047628 3.13132467 -339.38671875 3.4765625 C-336.73818752 3.60752329 -334.08964471 3.73824798 -331.44110107 3.86895752 C-329.74657167 3.95343414 -328.05210729 4.03923058 -326.35772705 4.12664795 C-292.06369484 5.89420336 -257.79301113 6.16327488 -223.45996094 6.13037109 C-217.42338184 6.12463602 -211.38684687 6.12799499 -205.35026932 6.13394356 C-200.60381754 6.13759434 -195.85737588 6.13639074 -191.11092377 6.13381577 C-188.88672632 6.13316096 -186.66252788 6.13392259 -184.4383316 6.13629532 C-171.05419394 6.14746685 -157.72291162 5.84960756 -144.35281372 5.23580933 C-137.87763724 4.94034669 -131.40724032 4.80198932 -124.92578125 4.71875 C-123.74437057 4.70034058 -122.5629599 4.68193115 -121.3457489 4.66296387 C-116.43686328 4.58650697 -111.52788568 4.51719165 -106.61889648 4.44775391 C-93.88444538 4.26374712 -81.17083447 4.035049 -68.45166016 3.36645508 C-62.53757083 3.05865217 -56.6275265 2.8546301 -50.70703125 2.71875 C-49.88384903 2.69969604 -49.06066681 2.68064209 -48.21253967 2.66101074 C-44.88598823 2.58615927 -41.55937736 2.51512556 -38.23266602 2.44775391 C-35.74484536 2.39632243 -33.25720823 2.33916079 -30.76953125 2.28125 C-30.01452835 2.26767456 -29.25952545 2.25409912 -28.48164368 2.2401123 C-24.61285346 2.21338039 -24.61285346 2.21338039 -21 1 C-14.01919633 0.19908626 -7.02268214 -0.13769965 0 0 Z " fill="#CB6668" transform="translate(443,429)"/>
<path d="M0 0 C-1.28913487 0.67154933 -2.58140204 1.33708859 -3.875 2 C-4.59429687 2.37125 -5.31359375 2.7425 -6.0546875 3.125 C-8 4 -8 4 -10 4 C-10 4.66 -10 5.32 -10 6 C-11.56119422 6.79423861 -13.12401964 7.58527123 -14.6875 8.375 C-15.55761719 8.81585938 -16.42773438 9.25671875 -17.32421875 9.7109375 C-19.8493195 10.9274094 -22.38595967 11.99153774 -25 13 C-27.23470405 13.78309467 -27.23470405 13.78309467 -29 15 C-29.36162029 16.32594105 -29.69728039 17.65938457 -30 19 C-30.99 19.33 -31.98 19.66 -33 20 C-34.71567661 23.50294871 -34.71567661 23.50294871 -36 27 C-36.66 27 -37.32 27 -38 27 C-38 27.99 -38 28.98 -38 30 C-38.66 30.33 -39.32 30.66 -40 31 C-40.46523063 32.89533342 -40.46523063 32.89533342 -40.625 35.0625 C-40.74875 36.361875 -40.8725 37.66125 -41 39 C-41.62519531 39.09410156 -42.25039063 39.18820313 -42.89453125 39.28515625 C-43.58933594 39.52105469 -44.28414062 39.75695312 -45 40 C-47.88768983 45.88233114 -48.6141346 51.50681668 -49 58 C-50.32 58 -51.64 58 -53 58 C-53.33 59.32 -53.66 60.64 -54 62 C-52.11886589 44.11932525 -44.79257931 25.07368429 -31 13 C-23.76274722 7.36875403 -9.36977968 -3.54168705 0 0 Z " fill="#C94241" transform="translate(61,70)"/>
<path d="M0 0 C4.52116662 1.93764284 7.99390629 3.45955033 12 6 C12.68835938 6.41765625 13.37671875 6.8353125 14.0859375 7.265625 C14.82070312 7.71421875 15.55546875 8.1628125 16.3125 8.625 C17.00988281 9.05039063 17.70726562 9.47578125 18.42578125 9.9140625 C18.94527344 10.27242187 19.46476562 10.63078125 20 11 C20 11.33 20 11.66 20 12 C14.9237556 12.65499928 10.26450635 10.6344781 6 8 C5.67 7.01 5.34 6.02 5 5 C3.68 4.34 2.36 3.68 1 3 C1 62.07 1 121.14 1 182 C2.32 181.67 3.64 181.34 5 181 C5 181.99 5 182.98 5 184 C2.525 184.99 2.525 184.99 0 186 C0 124.62 0 63.24 0 0 Z " fill="#FFF6F8" transform="translate(188,157)"/>
<path d="M0 0 C0.33 0 0.66 0 1 0 C5.13698838 26.89042446 0.15026344 56.80674606 -6 83 C-6.33 83 -6.66 83 -7 83 C-7.13434056 75.39483162 -6.73279341 67.89177449 -6.125 60.3125 C-6.00705078 58.67958008 -6.00705078 58.67958008 -5.88671875 57.01367188 C-5.18543708 48.13976151 -5.18543708 48.13976151 -3.8984375 44.02734375 C-2.99951857 40.9983778 -2.93579989 39.3097006 -3.5 36.25 C-4.21428571 32.32142857 -4.21428571 32.32142857 -2 29 C-1.07003887 25.42158161 -0.82158608 21.94808528 -0.68359375 18.26171875 C-0.64169922 17.19501953 -0.59980469 16.12832031 -0.55664062 15.02929688 C-0.51732422 13.92650391 -0.47800781 12.82371094 -0.4375 11.6875 C-0.37272461 10.00430664 -0.37272461 10.00430664 -0.30664062 8.28710938 C-0.20085213 5.52485431 -0.09876328 2.7625137 0 0 Z " fill="#C54346" transform="translate(497,296)"/>
<path d="M0 0 C12.17461455 -0.09848786 24.33621782 -0.14850541 36.5 0.4375 C37.32781982 0.47673584 38.15563965 0.51597168 39.00854492 0.55639648 C46.90959012 0.97554367 54.42241501 1.60707842 62 4 C63.81192761 4.54357828 65.62445489 5.08516072 67.4375 5.625 C68.95847052 6.08287786 70.47935206 6.54105193 72 7 C72 7.33 72 7.66 72 8 C62.59070938 7.48105509 53.2018434 6.80222812 43.8125 6 C42.82113037 5.9170166 41.82976074 5.8340332 40.80834961 5.74853516 C39.86741455 5.66651855 38.92647949 5.58450195 37.95703125 5.5 C37.12147705 5.4278125 36.28592285 5.355625 35.42504883 5.28125 C33 5 33 5 30.54003906 4.48193359 C27.78735905 3.95965463 25.2026881 3.84062725 22.40234375 3.7890625 C21.35369141 3.76070313 20.30503906 3.73234375 19.22460938 3.703125 C17.02947044 3.65095295 14.83412905 3.60670847 12.63867188 3.5703125 C11.06762695 3.52390625 11.06762695 3.52390625 9.46484375 3.4765625 C8.512146 3.45674316 7.55944824 3.43692383 6.57788086 3.41650391 C3.62358899 2.9391839 2.21525118 1.96382197 0 0 Z " fill="#BD3B3C" transform="translate(376,65)"/>
<path d="M0 0 C4.36663252 7.65935745 3.10604265 17.94727882 3 26.5 C2.9217823 37.09567626 3.21545094 47.64546687 3.73242188 58.22851562 C3.78076172 59.30294922 3.82910156 60.37738281 3.87890625 61.484375 C3.94960327 62.90314941 3.94960327 62.90314941 4.02172852 64.35058594 C3.99974868 67.03064438 3.61310759 69.39657825 3 72 C2.67 72 2.34 72 2 72 C0.02878761 56.03632518 -1.30290631 40.27626278 -1.25 24.1875 C-1.24895264 23.48980499 -1.24790527 22.79210999 -1.24682617 22.07327271 C-1.22313782 14.64467057 -1.00446194 7.36335406 0 0 Z " fill="#C63235" transform="translate(2,285)"/>
<path d="M0 0 C-2.33074921 2.69988444 -2.70589836 2.97836041 -6.50390625 3.2578125 C-7.85718087 3.22865281 -9.21019124 3.18385166 -10.5625 3.125 C-15.42262066 2.75451921 -15.42262066 2.75451921 -20 4 C-21.93971378 4.12005547 -23.88343616 4.17733344 -25.82666016 4.20532227 C-27.65833237 4.2352401 -27.65833237 4.2352401 -29.52700806 4.26576233 C-30.86435823 4.28274656 -32.20170975 4.29962537 -33.5390625 4.31640625 C-34.90384553 4.33697603 -36.26862218 4.35797251 -37.63339233 4.37937927 C-41.22707973 4.43459759 -44.8208246 4.48400787 -48.41461182 4.53222656 C-52.08114746 4.58244337 -55.74759956 4.63812849 -59.4140625 4.69335938 C-66.60930426 4.800938 -73.80461546 4.90238357 -81 5 C-81 4.67 -81 4.34 -81 4 C-68.42263002 2.52806483 -55.88965381 1.54368497 -43.23876953 0.99462891 C-40.50122548 0.87505353 -37.76433834 0.74477822 -35.02734375 0.61328125 C-23.34414417 0.07288621 -11.69479886 -0.10579729 0 0 Z " fill="#CD7071" transform="translate(143,64)"/>
<path d="M0 0 C0 0.33 0 0.66 0 1 C-3.01969141 1.48744257 -6.04046738 1.96496399 -9.0625 2.4375 C-9.89072266 2.57220703 -10.71894531 2.70691406 -11.57226562 2.84570312 C-25.77564204 5.04320665 -40.15825391 5.23546548 -54.5 5.5625 C-55.38332001 5.58367889 -56.26664001 5.60485779 -57.17672729 5.62667847 C-73.78671574 6.02166035 -90.38588011 6.12011098 -107 6 C-107 5.67 -107 5.34 -107 5 C-100.12526782 4.68144199 -93.25025047 4.3696678 -86.375 4.0625 C-85.34644897 4.01642609 -84.31789795 3.97035217 -83.25817871 3.92288208 C-66.96091903 3.19873905 -50.66724095 2.65759789 -34.35693359 2.34204102 C-33.59961945 2.32573639 -32.8423053 2.30943176 -32.06204224 2.29263306 C-30.03655516 2.24922143 -28.01095468 2.21119364 -25.98535156 2.17358398 C-23.07373199 2.20125788 -23.07373199 2.20125788 -21 1 C-14.01919633 0.19908626 -7.02268214 -0.13769965 0 0 Z " fill="#B63033" transform="translate(443,429)"/>
<path d="M0 0 C0.33 0 0.66 0 1 0 C1.33 2.31 1.66 4.62 2 7 C1.67 7 1.34 7 1 7 C0.94465088 7.85754883 0.88930176 8.71509766 0.83227539 9.59863281 C0.62458427 12.78942538 0.41361443 15.97997964 0.20043945 19.17041016 C0.10896056 20.54955568 0.01877737 21.92878781 -0.07006836 23.30810547 C-0.19822465 25.29416998 -0.33147441 27.27990374 -0.46484375 29.265625 C-0.543396 30.45961914 -0.62194824 31.65361328 -0.70288086 32.88378906 C-0.94251051 35.39704532 -1.35230556 37.57795218 -2 40 C-2.04425338 42.04118701 -2.03935012 44.08371258 -2 46.125 C-1.94850356 51.82179369 -2.28593824 57.35126147 -3 63 C-3.33 63 -3.66 63 -4 63 C-4.33 69.27 -4.66 75.54 -5 82 C-5.33 82 -5.66 82 -6 82 C-6.7573966 54.57835897 -4.47762069 27.05626121 0 0 Z " fill="#D36867" transform="translate(6,132)"/>
<path d="M0 0 C0.66 0 1.32 0 2 0 C2 0.66 2 1.32 2 2 C2.99 2.33 3.98 2.66 5 3 C5.02578125 3.60328125 5.0515625 4.2065625 5.078125 4.828125 C5.4109673 10.02360508 5.4109673 10.02360508 7.875 14.5 C10.01931277 16.1668497 10.01931277 16.1668497 13 17 C13 18.32 13 19.64 13 21 C13.99 21.33 14.98 21.66 16 22 C16 22.66 16 23.32 16 24 C17.65 24.66 19.3 25.32 21 26 C21 26.66 21 27.32 21 28 C21.763125 27.773125 22.52625 27.54625 23.3125 27.3125 C26 27 26 27 27.8125 28.1875 C29 30 29 30 29 34 C16.43389594 30.41501935 8.65976759 21.1807391 2.43359375 10.25 C-0.156348 5.39474135 -0.156348 5.39474135 -1 3 C-0.67 2.01 -0.34 1.02 0 0 Z " fill="#CD5E63" transform="translate(15,390)"/>
<path d="M0 0 C0 1.65 0 3.3 0 5 C-1.216875 5.226875 -2.43375 5.45375 -3.6875 5.6875 C-7.98524908 6.76003561 -10.18010228 8.51659694 -13 12 C-14.29519995 14.16620544 -14.29519995 14.16620544 -15 16 C-15.639375 15.9175 -16.27875 15.835 -16.9375 15.75 C-22.78254621 16.22714663 -27.88683081 19.27235579 -32.8125 22.3125 C-36 24 -36 24 -38.19921875 23.60546875 C-38.79347656 23.40566406 -39.38773437 23.20585937 -40 23 C-38.97261719 22.43152344 -37.94523437 21.86304688 -36.88671875 21.27734375 C-29.68566989 17.27230519 -22.59464476 13.19439713 -15.6796875 8.70703125 C-2.01144165 0 -2.01144165 0 0 0 Z " fill="#DD3238" transform="translate(309,271)"/>
<path d="M0 0 C0.33 0 0.66 0 1 0 C3.71907065 23.1415166 5.18258535 45.6993009 5 69 C4.67 69 4.34 69 4 69 C3.42154751 61.7456292 2.85304028 54.49052511 2.29101562 47.23486328 C2.09922371 44.77342639 1.90526505 42.31215723 1.70898438 39.85107422 C0.64965579 26.55001475 -0.37055279 13.3501935 0 0 Z " fill="#BC5755" transform="translate(494,139)"/>
<path d="M0 0 C-1.28913487 0.67154933 -2.58140204 1.33708859 -3.875 2 C-4.59429687 2.37125 -5.31359375 2.7425 -6.0546875 3.125 C-8 4 -8 4 -10 4 C-10 4.66 -10 5.32 -10 6 C-11.56119422 6.79423861 -13.12401964 7.58527123 -14.6875 8.375 C-15.55761719 8.81585938 -16.42773438 9.25671875 -17.32421875 9.7109375 C-20 11 -20 11 -22.64453125 12.0078125 C-25.27256217 12.97994863 -25.27256217 12.97994863 -28 15.5 C-30.70507844 17.75423204 -32.69377607 18.93033932 -36 20 C-31.59743201 9.52652246 -17.78708624 4.3318119 -8 0 C-4.89508042 -0.93307898 -3.11051128 -0.9998072 0 0 Z " fill="#C45152" transform="translate(61,70)"/>
<path d="M0 0 C0.33 0.66 0.66 1.32 1 2 C2.32 1.67 3.64 1.34 5 1 C5 1.99 5 2.98 5 4 C6.32 4.66 7.64 5.32 9 6 C9 6.99 9 7.98 9 9 C9.70125 9.268125 10.4025 9.53625 11.125 9.8125 C14.1649824 11.0681449 17.0727774 12.50235123 20 14 C20 14.66 20 15.32 20 16 C22.97 16 25.94 16 29 16 C28.67 17.32 28.34 18.64 28 20 C28.66 20.33 29.32 20.66 30 21 C29.01 21.495 29.01 21.495 28 22 C25.67000998 20.84396649 23.47870796 19.64097572 21.25 18.3125 C20.6415625 17.95994141 20.033125 17.60738281 19.40625 17.24414062 C15.5070353 14.96543289 11.75190271 12.51536013 8 10 C6.80104797 9.29626729 5.59447713 8.60503369 4.375 7.9375 C1.73272129 6.4206363 -0.62909968 4.89672026 -3 3 C-2.01 2.01 -1.02 1.02 0 0 Z " fill="#C23C3C" transform="translate(192,154)"/>
<path d="M0 0 C4.82360189 -0.19294408 8.49646738 0.24252386 13 2 C13 2.66 13 3.32 13 4 C22.9 4 32.8 4 43 4 C43 4.99 43 5.98 43 7 C43.99 7.33 44.98 7.66 46 8 C29.94973291 8.20979356 15.1133678 6.53031056 0 1 C0 0.67 0 0.34 0 0 Z " fill="#C33B3D" transform="translate(44,424)"/>
<path d="M0 0 C0 0.66 0 1.32 0 2 C-0.99 2 -1.98 2 -3 2 C-3 2.66 -3 3.32 -3 4 C-7.38461538 7 -7.38461538 7 -10 7 C-10 7.66 -10 8.32 -10 9 C-13.465 10.485 -13.465 10.485 -17 12 C-17 13.65 -17 15.3 -17 17 C-18.65 17.66 -20.3 18.32 -22 19 C-22 18.34 -22 17.68 -22 17 C-22.79664063 17.34224609 -22.79664063 17.34224609 -23.609375 17.69140625 C-24.66898438 18.12259766 -24.66898438 18.12259766 -25.75 18.5625 C-26.44609375 18.85253906 -27.1421875 19.14257812 -27.859375 19.44140625 C-30.30012784 20.07831803 -31.6403655 19.80248831 -34 19 C-28.25 16 -28.25 16 -26 16 C-26 15.34 -26 14.68 -26 14 C-23.87767021 12.82823482 -21.75242209 11.66245215 -19.625 10.5 C-19.02171875 10.16613281 -18.4184375 9.83226562 -17.796875 9.48828125 C-13.2265625 7 -13.2265625 7 -11 7 C-11 6.34 -11 5.68 -11 5 C-9.54462432 4.16151196 -8.08559627 3.32936066 -6.625 2.5 C-5.81289063 2.0359375 -5.00078125 1.571875 -4.1640625 1.09375 C-2 0 -2 0 0 0 Z " fill="#D33331" transform="translate(265,298)"/>
<path d="M0 0 C0.33 0 0.66 0 1 0 C1.33 2.64 1.66 5.28 2 8 C2.33 8 2.66 8 3 8 C4.38394829 14.11255607 4.4013553 20.25768175 4.625 26.5 C4.6765625 27.72332031 4.728125 28.94664062 4.78125 30.20703125 C4.82507813 31.38652344 4.86890625 32.56601562 4.9140625 33.78125 C4.9548291 34.85439453 4.9955957 35.92753906 5.03759766 37.03320312 C5.00209914 39.8343589 4.65048253 42.28242853 4 45 C3.67 45 3.34 45 3 45 C2.56250939 41.00324399 2.13590669 37.00547134 1.71826172 33.0065918 C1.50637753 30.99795808 1.28651504 28.99017097 1.06640625 26.98242188 C0.127246 17.92623378 -0.17635686 9.0995239 0 0 Z " fill="#C96465" transform="translate(1,312)"/>
<path d="M0 0 C3.96 1.98 7.92 3.96 12 6 C12 6.66 12 7.32 12 8 C12.68449219 8.25136719 13.36898438 8.50273437 14.07421875 8.76171875 C17.47343922 10.20037414 20.62669624 11.96239958 23.8125 13.8125 C24.42689941 14.16634766 25.04129883 14.52019531 25.67431641 14.88476562 C30.18015284 17.49209548 34.61491404 20.19354499 39 23 C38.01 23.66 37.02 24.32 36 25 C34.02 24.01 32.04 23.02 30 22 C30 21.01 30 20.02 30 19 C28.88625 18.9175 27.7725 18.835 26.625 18.75 C25.42875 18.5025 24.2325 18.255 23 18 C22.30062468 16.68352881 21.63270867 15.34977849 21 14 C17.94091587 13.18415432 17.94091587 13.18415432 15 13 C15 12.34 15 11.68 15 11 C14.34 11 13.68 11 13 11 C13 10.34 13 9.68 13 9 C12.34 9 11.68 9 11 9 C11 8.34 11 7.68 11 7 C10.43410156 6.89042969 9.86820313 6.78085938 9.28515625 6.66796875 C8.55167969 6.50941406 7.81820312 6.35085937 7.0625 6.1875 C6.33160156 6.03667969 5.60070312 5.88585937 4.84765625 5.73046875 C4.23792969 5.48941406 3.62820312 5.24835938 3 5 C2.67 4.01 2.34 3.02 2 2 C1.34 2 0.68 2 0 2 C0 1.34 0 0.68 0 0 Z " fill="#FBDDD7" transform="translate(244,190)"/>
<path d="M0 0 C12.17461455 -0.09848786 24.33621782 -0.14850541 36.5 0.4375 C37.32781982 0.47673584 38.15563965 0.51597168 39.00854492 0.55639648 C44.36836139 0.84073254 49.67031112 1.36576702 55 2 C55 2.33 55 2.66 55 3 C47.81012743 3.0760222 40.6203584 3.12858815 33.43017578 3.16479492 C30.98384732 3.1798877 28.53754593 3.20036402 26.09130859 3.22631836 C22.57642943 3.26267918 19.06190782 3.27972161 15.546875 3.29296875 C14.4519574 3.30845261 13.35703979 3.32393646 12.22894287 3.33988953 C11.20818665 3.34011612 10.18743042 3.34034271 9.13574219 3.34057617 C8.23861511 3.34723801 7.34148804 3.35389984 6.41717529 3.36076355 C3.54024657 2.93138177 2.15815541 1.90069325 0 0 Z " fill="#D58B88" transform="translate(376,65)"/>
<path d="M0 0 C1.35368986 4.06106958 -0.02786016 6.67802176 -1.5 10.5 C-1.91004272 11.57096924 -1.91004272 11.57096924 -2.32836914 12.66357422 C-6.09576454 22.14654006 -10.79253329 29.80252514 -19 36 C-19 34.35 -19 32.7 -19 31 C-18.34 31 -17.68 31 -17 31 C-16.67 30.01 -16.34 29.02 -16 28 C-13.4375 26.8125 -13.4375 26.8125 -11 26 C-11 25.01 -11 24.02 -11 23 C-10.34 22.67 -9.68 22.34 -9 22 C-8.64984951 20.33678518 -8.31802943 18.66965451 -8 17 C-7.34 16.01 -6.68 15.02 -6 14 C-5.29824029 12.17981076 -4.6347145 10.34463901 -4 8.5 C-2.88449307 5.25805799 -1.91545696 2.87318545 0 0 Z " fill="#D67B7A" transform="translate(489,379)"/>
<path d="M0 0 C1.47786304 0.00503337 2.95572777 0.00959298 4.43359375 0.01367188 C7.99743195 0.02451282 11.56120447 0.04167221 15.125 0.0625 C15.125 0.3925 15.125 0.7225 15.125 1.0625 C14.20162842 1.11784912 13.27825684 1.17319824 12.3269043 1.23022461 C8.89944546 1.43760281 5.47224948 1.64860242 2.04516602 1.86206055 C0.56218216 1.95368284 -0.92089154 2.04386294 -2.40405273 2.13256836 C-4.53654873 2.26036106 -6.66866729 2.39334579 -8.80078125 2.52734375 C-10.08380127 2.605896 -11.36682129 2.68444824 -12.6887207 2.76538086 C-15.89378903 2.94277433 -15.89378903 2.94277433 -18.875 4.0625 C-21.61365287 4.13301114 -24.32527588 4.15607765 -27.0625 4.125 C-27.81208984 4.12048828 -28.56167969 4.11597656 -29.33398438 4.11132812 C-31.18102383 4.09956354 -33.02802213 4.08162865 -34.875 4.0625 C-33.875 2.0625 -33.875 2.0625 -30.875 1.0625 C-20.60824839 -0.10537249 -10.31491567 -0.06216631 0 0 Z " fill="#C33639" transform="translate(91.875,67.9375)"/>
<path d="M0 0 C11.808977 -0.51541106 24.79202721 4.74216908 33.71875 12.4921875 C34.86036378 13.61477439 35.94068542 14.79944348 37 16 C36.01 16 35.02 16 34 16 C33.38125 16.268125 32.7625 16.53625 32.125 16.8125 C30 17 30 17 27.375 14.8125 C25 12 25 12 24.2265625 9.98828125 C21.14271231 4.98930117 12.34006038 3.57834192 6.91796875 2.23828125 C4.61633653 1.77400351 2.32133161 1.35108176 0 1 C0 0.67 0 0.34 0 0 Z " fill="#DD8583" transform="translate(432,68)"/>
<path d="M0 0 C0.33 0 0.66 0 1 0 C1.43335866 5.33399962 1.86033113 10.6684608 2.28173828 16.00341797 C2.42554958 17.8131239 2.57101702 19.6226991 2.71826172 21.43212891 C3.52015251 31.3002952 4.27320371 41.08877661 4 51 C2.53198242 49.93652344 2.53198242 49.93652344 1 48 C0.56762695 44.86816406 0.56762695 44.86816406 0.48828125 41.015625 C0.47033005 40.32297546 0.45237885 39.63032593 0.43388367 38.91668701 C0.37979425 36.69452236 0.34604352 34.47255977 0.3125 32.25 C0.27929007 30.80075099 0.24479705 29.35153078 0.20898438 27.90234375 C-0.00611459 18.60157455 -0.03821023 9.30291711 0 0 Z " fill="#D53632" transform="translate(495,169)"/>
<path d="M0 0 C0 0.33 0 0.66 0 1 C-17.0816027 3.75733485 -33.68991463 5.20471849 -51 5 C-51 4.67 -51 4.34 -51 4 C-50.16227051 3.94465088 -49.32454102 3.88930176 -48.46142578 3.83227539 C-45.35636559 3.62508453 -42.2515961 3.41406729 -39.14697266 3.20043945 C-37.80267572 3.1087312 -36.45827347 3.01855335 -35.11376953 2.92993164 C-33.18234758 2.80235801 -31.25132106 2.66884146 -29.3203125 2.53515625 C-28.15773926 2.456604 -26.99516602 2.37805176 -25.79736328 2.29711914 C-23.04875846 2.17031374 -23.04875846 2.17031374 -21 1 C-14.01919633 0.19908626 -7.02268214 -0.13769965 0 0 Z " fill="#C46465" transform="translate(443,429)"/>
<path d="M0 0 C0.99 0 1.98 0 3 0 C2.79503906 0.60585937 2.59007812 1.21171875 2.37890625 1.8359375 C0.4279788 7.90341521 -0.6077615 13.64303124 -1 20 C-2.32 20 -3.64 20 -5 20 C-5.33 21.32 -5.66 22.64 -6 24 C-5.43189471 18.20140805 -4.26320265 13.02313406 -2.4375 7.5 C-2.08655273 6.40945312 -2.08655273 6.40945312 -1.72851562 5.296875 C-1.15867219 3.52919739 -0.58024596 1.76429031 0 0 Z " fill="#CD5C5C" transform="translate(13,108)"/>
<path d="M0 0 C1.98 0 3.96 0 6 0 C2.8090853 3.68799187 -0.68452983 5.45550072 -5.125 7.25 C-5.75792969 7.518125 -6.39085937 7.78625 -7.04296875 8.0625 C-11.69889987 10 -11.69889987 10 -14 10 C-14 9.01 -14 8.02 -14 7 C-12.23244474 6.15973604 -10.46082737 5.32801278 -8.6875 4.5 C-7.70136719 4.0359375 -6.71523438 3.571875 -5.69921875 3.09375 C-3 2 -3 2 0 2 C0 1.34 0 0.68 0 0 Z " fill="#CA5A5A" transform="translate(459,419)"/>
<path d="M0 0 C-8.75 7 -8.75 7 -13 7 C-13 7.66 -13 8.32 -13 9 C-19 12 -19 12 -25 15 C-25.33 13.02 -25.66 11.04 -26 9 C-23.69 9.33 -21.38 9.66 -19 10 C-19 9.34 -19 8.68 -19 8 C-17.35 8 -15.7 8 -14 8 C-13.67 7.01 -13.34 6.02 -13 5 C-12.01 5 -11.02 5 -10 5 C-9.67 4.01 -9.34 3.02 -9 2 C-5.99208089 -0.04108797 -3.57804656 -0.19878036 0 0 Z " fill="#F7D2CD" transform="translate(252,305)"/>
<path d="M0 0 C2.52775351 3.79163027 2.22443035 6.80874031 2.125 11.1875 C2.11597656 11.93708984 2.10695313 12.68667969 2.09765625 13.45898438 C2.07412578 15.30612654 2.03825561 17.15310412 2 19 C1.67 19 1.34 19 1 19 C0.67 24.28 0.34 29.56 0 35 C-0.33 35 -0.66 35 -1 35 C-1.0246519 30.17619198 -1.04283693 25.35242033 -1.05493164 20.52856445 C-1.05997174 18.88630536 -1.06680378 17.24405077 -1.07543945 15.60180664 C-1.08751926 13.24624521 -1.09323139 10.89074291 -1.09765625 8.53515625 C-1.10281754 7.79660904 -1.10797882 7.05806183 -1.11329651 6.2971344 C-1.1134925 4.53101912 -1.06194719 2.76502854 -1 1 C-0.67 0.67 -0.34 0.34 0 0 Z " fill="#C53232" transform="translate(497,285)"/>
<path d="M0 0 C1.78016355 2.67024533 2.97163019 5.05030861 4.1875 8 C4.55230469 8.86625 4.91710937 9.7325 5.29296875 10.625 C6 13 6 13 5 16 C4.34 16.99 3.68 17.98 3 19 C2.90203125 18.37351562 2.8040625 17.74703125 2.703125 17.1015625 C2.55359375 16.28429687 2.4040625 15.46703125 2.25 14.625 C2.11078125 13.81289062 1.9715625 13.00078125 1.828125 12.1640625 C1.18250739 9.82290908 1.18250739 9.82290908 -1.078125 8.7109375 C-1.71234375 8.47632812 -2.3465625 8.24171875 -3 8 C-3 6.35 -3 4.7 -3 3 C-2.34 3 -1.68 3 -1 3 C-0.67 2.01 -0.34 1.02 0 0 Z " fill="#C95959" transform="translate(484,104)"/>
<path d="M0 0 C-0.33 3.3 -0.66 6.6 -1 10 C-0.01 10.33 0.98 10.66 2 11 C1.01 11.495 1.01 11.495 0 12 C0 12.66 0 13.32 0 14 C0.66 14 1.32 14 2 14 C2.69740804 16.76867997 3.38322853 19.53936862 4.0625 22.3125 C4.26166016 23.09818359 4.46082031 23.88386719 4.66601562 24.69335938 C4.84970703 25.45068359 5.03339844 26.20800781 5.22265625 26.98828125 C5.39547119 27.68477783 5.56828613 28.38127441 5.74633789 29.09887695 C6 31 6 31 5 34 C-3.32088889 10.22133333 -3.32088889 10.22133333 -3 1 C-1 0 -1 0 0 0 Z " fill="#D67274" transform="translate(8,357)"/>
<path d="M0 0 C8.21599595 4.34673934 16.1266259 9.06818856 24 14 C23.34 14.66 22.68 15.32 22 16 C20.68 15.34 19.36 14.68 18 14 C18 13.34 18 12.68 18 12 C15.98177083 11.54427083 13.96354167 11.08854167 11.9453125 10.6328125 C10 10 10 10 8 8 C6.03711666 6.46649739 4.22969844 5.11484922 2 4 C2 3.34 2 2.68 2 2 C1.34 2 0.68 2 0 2 C0 1.34 0 0.68 0 0 Z " fill="#FBDED7" transform="translate(297,222)"/>
<path d="M0 0 C0 1.65 0 3.3 0 5 C-1.093125 5.185625 -2.18625 5.37125 -3.3125 5.5625 C-8.421898 6.78292662 -12.25276068 9.62018226 -16.484375 12.63671875 C-19 14 -19 14 -21.328125 13.70703125 C-22.15570313 13.35705078 -22.15570313 13.35705078 -23 13 C-17.49779593 9.67676613 -11.97847026 6.38322323 -6.4375 3.125 C-5.42558594 2.52945312 -4.41367187 1.93390625 -3.37109375 1.3203125 C-1 0 -1 0 0 0 Z " fill="#C04847" transform="translate(309,271)"/>
<path d="M0 0 C-3.2061074 1.94120135 -6.4152736 3.87728944 -9.625 5.8125 C-10.52863281 6.35970703 -11.43226563 6.90691406 -12.36328125 7.47070312 C-16.83576947 10.16398983 -21.28000513 12.76545094 -26 15 C-26 14.01 -26 13.02 -26 12 C-25.236875 11.649375 -24.47375 11.29875 -23.6875 10.9375 C-19.38660452 8.81791993 -15.46889902 6.08503213 -11.48828125 3.42578125 C-9 2 -9 2 -6 2 C-6 1.34 -6 0.68 -6 0 C-3.50907189 -1.24546405 -2.58919267 -0.7767578 0 0 Z " fill="#FCDDD9" transform="translate(221,324)"/>
<path d="M0 0 C4.23777001 1.74496412 8.12075068 3.53998824 12 6 C12.68835938 6.41765625 13.37671875 6.8353125 14.0859375 7.265625 C14.82070312 7.71421875 15.55546875 8.1628125 16.3125 8.625 C17.00988281 9.05039063 17.70726562 9.47578125 18.42578125 9.9140625 C18.94527344 10.27242187 19.46476562 10.63078125 20 11 C20 11.33 20 11.66 20 12 C14.9237556 12.65499928 10.26450635 10.6344781 6 8 C5.67 7.01 5.34 6.02 5 5 C3.35 4.67 1.7 4.34 0 4 C0 2.68 0 1.36 0 0 Z " fill="#FBF3EE" transform="translate(188,157)"/>
<path d="M0 0 C5.13683031 2.96728369 7.85661967 6.10238838 10.9375 11.125 C11.34806641 11.75792969 11.75863281 12.39085938 12.18164062 13.04296875 C13.19424418 14.65152279 14.10651638 16.32235312 15 18 C14.67 18.66 14.34 19.32 14 20 C13.34 19.67 12.68 19.34 12 19 C12 18.34 12 17.68 12 17 C11.34 17 10.68 17 10 17 C10 16.01 10 15.02 10 14 C9.34 14 8.68 14 8 14 C7.79375 13.113125 7.5875 12.22625 7.375 11.3125 C6.03110027 8.07492337 5.4880171 7.33389059 2.875 5.3125 C1.451875 4.1678125 1.451875 4.1678125 0 3 C0 2.01 0 1.02 0 0 Z " fill="#D07775" transform="translate(469,84)"/>
<path d="M0 0 C0.99 0.33 1.98 0.66 3 1 C-0.01887244 4.48331435 -2.56909529 5.79157144 -7 7 C-7 8.32 -7 9.64 -7 11 C-10.63 11.33 -14.26 11.66 -18 12 C-14.73082381 8.73082381 -11.4280202 6.62177601 -7.5 4.25 C-6.82324219 3.82589844 -6.14648438 3.40179688 -5.44921875 2.96484375 C-3.68037053 1.89376603 -1.84285867 0.93803167 0 0 Z " fill="#CC4242" transform="translate(211,329)"/>
<path d="M0 0 C-1.28913487 0.67154933 -2.58140204 1.33708859 -3.875 2 C-4.59429687 2.37125 -5.31359375 2.7425 -6.0546875 3.125 C-8 4 -8 4 -10 4 C-10 4.66 -10 5.32 -10 6 C-13.465 7.485 -13.465 7.485 -17 9 C-17 8.34 -17 7.68 -17 7 C-17.66 6.34 -18.32 5.68 -19 5 C-17.25197854 4.18325204 -15.50149811 3.37176549 -13.75 2.5625 C-12.77546875 2.11003906 -11.8009375 1.65757813 -10.796875 1.19140625 C-6.70394494 -0.55209049 -4.30908623 -1.38506343 0 0 Z " fill="#D67875" transform="translate(61,70)"/>
<path d="M0 0 C0.474375 0.495 0.94875 0.99 1.4375 1.5 C2.75923698 3.11542197 2.75923698 3.11542197 4 3 C3.88658509 5.48020497 3.75985314 7.95844969 3.625 10.4375 C3.5940625 11.14455078 3.563125 11.85160156 3.53125 12.58007812 C3.42719371 14.39239188 3.22080108 16.19817988 3 18 C2.34 18.33 1.68 18.66 1 19 C0.63752129 16.39674384 0.28472345 13.79279598 -0.0625 11.1875 C-0.2181543 10.08051758 -0.2181543 10.08051758 -0.37695312 8.95117188 C-0.82086566 5.56825221 -1.09314992 3.27944975 0 0 Z " fill="#CF5656" transform="translate(494,325)"/>
<path d="M0 0 C4.03331627 0.48888682 6.78454301 1.99526144 10.23046875 4.08984375 C12.71203518 5.36623443 15.2633355 5.56462156 18 6 C19.875 7.5625 19.875 7.5625 21 9 C20.67 9.99 20.34 10.98 20 12 C13.13676939 8.69980826 6.33009638 5.25597969 0 1 C0 0.67 0 0.34 0 0 Z " fill="#BC3F40" transform="translate(276,209)"/>
<path d="M0 0 C0 0.66 0 1.32 0 2 C-0.99 2 -1.98 2 -3 2 C-3 2.66 -3 3.32 -3 4 C-7.38461538 7 -7.38461538 7 -10 7 C-10 7.66 -10 8.32 -10 9 C-11.72526042 9.71614583 -13.45052083 10.43229167 -15.17578125 11.1484375 C-17.26533932 12.06806692 -17.26533932 12.06806692 -20 14 C-22.1875 13.625 -22.1875 13.625 -24 13 C-22.21118264 11.99491199 -20.41885304 10.99607264 -18.625 10 C-17.62726563 9.443125 -16.62953125 8.88625 -15.6015625 8.3125 C-13 7 -13 7 -11 7 C-11 6.34 -11 5.68 -11 5 C-9.54462432 4.16151196 -8.08559627 3.32936066 -6.625 2.5 C-5.81289063 2.0359375 -5.00078125 1.571875 -4.1640625 1.09375 C-2 0 -2 0 0 0 Z " fill="#B33C3D" transform="translate(265,298)"/>
<path d="M0 0 C1.32 0 2.64 0 4 0 C4 0.66 4 1.32 4 2 C5.0725 2.0825 6.145 2.165 7.25 2.25 C11.4749979 3.09499958 12.15511385 3.97730847 15 7 C17.28771186 8.18364223 19.58962453 9.07293251 22 10 C22 10.66 22 11.32 22 12 C16.19283193 11.56034059 12.37630087 9.09307109 7.625 6 C6.88894531 5.5359375 6.15289062 5.071875 5.39453125 4.59375 C3.573199 3.43134129 1.78331104 2.21993725 0 1 C0 0.67 0 0.34 0 0 Z " fill="#B54746" transform="translate(323,237)"/>
<path d="M0 0 C1.258125 0.12375 2.51625 0.2475 3.8125 0.375 C4.87404297 0.47941406 4.87404297 0.47941406 5.95703125 0.5859375 C8 1 8 1 11 3 C11 3.66 11 4.32 11 5 C12.65 5.33 14.3 5.66 16 6 C16 6.99 16 7.98 16 9 C17.32 9.33 18.64 9.66 20 10 C19.01 10.495 19.01 10.495 18 11 C15.64453125 9.92578125 15.64453125 9.92578125 12.8125 8.3125 C11.8328125 7.75949219 10.853125 7.20648438 9.84375 6.63671875 C8.9053125 6.09660156 7.966875 5.55648437 7 5 C6.2471875 4.57332031 5.494375 4.14664063 4.71875 3.70703125 C3.14172986 2.81187843 1.57012905 1.90718567 0 1 C0 0.67 0 0.34 0 0 Z " fill="#C04346" transform="translate(236,185)"/>
<path d="M0 0 C1 2 1 2 0.3515625 4.078125 C-1 6 -1 6 -3.1640625 6.609375 C-3.97617188 6.65578125 -4.78828125 6.7021875 -5.625 6.75 C-6.44226563 6.80671875 -7.25953125 6.8634375 -8.1015625 6.921875 C-8.72804687 6.94765625 -9.35453125 6.9734375 -10 7 C-10 7.66 -10 8.32 -10 9 C-12.31 9.66 -14.62 10.32 -17 11 C-14.20957375 7.71165383 -10.52671824 5.87264311 -6.8125 3.8125 C-6.15830078 3.44447266 -5.50410156 3.07644531 -4.83007812 2.69726562 C-3.22253039 1.7937534 -1.61159349 0.8962759 0 0 Z " fill="#C04B4D" transform="translate(230,318)"/>
<path d="M0 0 C6.13722814 0.32301201 11.16230728 3.3956321 16 7 C16 7.66 16 8.32 16 9 C17.32 9.33 18.64 9.66 20 10 C20 10.66 20 11.32 20 12 C15.37909884 10.35800988 11.36156215 7.9659032 7.1875 5.4375 C6.49462891 5.02564453 5.80175781 4.61378906 5.08789062 4.18945312 C3.37298683 3.15713173 1.68380945 2.08229765 0 1 C0 0.67 0 0.34 0 0 Z " fill="#BA443E" transform="translate(303,225)"/>
<path d="M0 0 C1.6396875 0.2475 1.6396875 0.2475 3.3125 0.5 C6.87525873 1.06718184 6.87525873 1.06718184 10 1 C9.67 1.99 9.34 2.98 9 4 C10.98 3.67 12.96 3.34 15 3 C14.67 3.99 14.34 4.98 14 6 C14.33 6.99 14.66 7.98 15 9 C11.32305352 7.62859834 8.04681411 5.96304199 4.6875 3.9375 C3.80449219 3.41027344 2.92148438 2.88304687 2.01171875 2.33984375 C1.34785156 1.89769531 0.68398437 1.45554688 0 1 C0 0.67 0 0.34 0 0 Z " fill="#C14540" transform="translate(221,176)"/>
<path d="M0 0 C-1.95519384 1.17192047 -3.9142539 2.3373929 -5.875 3.5 C-6.96554687 4.1496875 -8.05609375 4.799375 -9.1796875 5.46875 C-12 7 -12 7 -14 7 C-14 7.66 -14 8.32 -14 9 C-15.98 9.66 -17.96 10.32 -20 11 C-20 10.34 -20 9.68 -20 9 C-19.34 9 -18.68 9 -18 9 C-17.67 8.01 -17.34 7.02 -17 6 C-15.02 5.67 -13.04 5.34 -11 5 C-11 4.34 -11 3.68 -11 3 C-9.73581754 2.30034557 -8.46334598 1.61565237 -7.1875 0.9375 C-6.47980469 0.55464844 -5.77210938 0.17179687 -5.04296875 -0.22265625 C-3 -1 -3 -1 0 0 Z " fill="#FAD7D2" transform="translate(283,287)"/>
<path d="M0 0 C1.32 0 2.64 0 4 0 C4 0.66 4 1.32 4 2 C6.65228812 3.07525194 9.28368454 4.09456151 12 5 C12.33 5.66 12.66 6.32 13 7 C14.88013106 8.12224855 14.88013106 8.12224855 17.0625 9.125 C17.79597656 9.47820312 18.52945312 9.83140625 19.28515625 10.1953125 C20.13400391 10.59363281 20.13400391 10.59363281 21 11 C20.34 11.66 19.68 12.32 19 13 C15.82640211 11.2204041 12.66241477 9.42438252 9.5 7.625 C8.14068359 6.86316406 8.14068359 6.86316406 6.75390625 6.0859375 C5.46806641 5.35117188 5.46806641 5.35117188 4.15625 4.6015625 C3.36025391 4.15119629 2.56425781 3.70083008 1.74414062 3.23681641 C1.16857422 2.82866699 0.59300781 2.42051758 0 2 C0 1.34 0 0.68 0 0 Z " fill="#B83536" transform="translate(256,196)"/>
<path d="M0 0 C-2.22687976 1.29574871 -4.45633175 2.58667308 -6.6875 3.875 C-7.31333984 4.23980469 -7.93917969 4.60460937 -8.58398438 4.98046875 C-11.98194942 6.93741197 -15.30067619 8.65607739 -19 10 C-18.67 9.01 -18.34 8.02 -18 7 C-17.34 7.33 -16.68 7.66 -16 8 C-15.67 7.01 -15.34 6.02 -15 5 C-14.01 4.67 -13.02 4.34 -12 4 C-10.33289654 2.50014391 -10.33289654 2.50014391 -9 1 C-8.34 1.33 -7.68 1.66 -7 2 C-7 1.34 -7 0.68 -7 0 C-3.98968256 -0.93423645 -3.13349732 -1.04449911 0 0 Z " fill="#FBE1DA" transform="translate(323,263)"/>
<path d="M0 0 C0.66 0 1.32 0 2 0 C2 0.66 2 1.32 2 2 C2.99 2.33 3.98 2.66 5 3 C5 5.97 5 8.94 5 12 C1.1334716 8.777893 0.11940982 5.85077588 -1 1 C-0.67 0.67 -0.34 0.34 0 0 Z " fill="#C84F52" transform="translate(15,390)"/>
<path d="M0 0 C1.32 0.33 2.64 0.66 4 1 C3.04738281 1.54269531 2.09476562 2.08539063 1.11328125 2.64453125 C-0.15366244 3.36715839 -1.42058859 4.08981627 -2.6875 4.8125 C-3.31333984 5.16892578 -3.93917969 5.52535156 -4.58398438 5.89257812 C-8.08115525 7.8883458 -11.55626286 9.91268705 -15 12 C-15.33 11.01 -15.66 10.02 -16 9 C-14.68 9 -13.36 9 -12 9 C-11.67 8.01 -11.34 7.02 -11 6 C-8 4 -8 4 -4 4 C-4 3.34 -4 2.68 -4 2 C-2.68 2 -1.36 2 0 2 C0 1.34 0 0.68 0 0 Z " fill="#FAD8D4" transform="translate(299,274)"/>
<path d="M0 0 C4.77609498 1.64178265 8.79382904 4.26546702 13 7 C12.67 7.66 12.34 8.32 12 9 C8.06618996 8.21323799 4.54496333 6.87281082 1 5 C0.0625 2.3125 0.0625 2.3125 0 0 Z " fill="#FBE6DF" transform="translate(283,214)"/>
<path d="M0 0 C3.62276315 1.3255581 6.63505348 2.94346955 9.8125 5.125 C10.60269531 5.66382813 11.39289063 6.20265625 12.20703125 6.7578125 C12.79871094 7.16773438 13.39039063 7.57765625 14 8 C13.67 8.66 13.34 9.32 13 10 C10.03216871 8.54331217 7.13584687 6.98767914 4.25 5.375 C3.45078125 4.92898437 2.6515625 4.48296875 1.828125 4.0234375 C1.22484375 3.68570313 0.6215625 3.34796875 0 3 C0 2.01 0 1.02 0 0 Z " fill="#FBDFD9" transform="translate(208,169)"/>
<path d="M0 0 C6.27 0 12.54 0 19 0 C16 3 16 3 14.09887695 3.2487793 C13.40238037 3.19117432 12.70588379 3.13356934 11.98828125 3.07421875 C11.23095703 3.01943359 10.47363281 2.96464844 9.69335938 2.90820312 C8.90767578 2.83537109 8.12199219 2.76253906 7.3125 2.6875 C6.51521484 2.62626953 5.71792969 2.56503906 4.89648438 2.50195312 C2.92983047 2.34886031 0.96471011 2.17629291 -1 2 C-0.67 1.34 -0.34 0.68 0 0 Z " fill="#D67172" transform="translate(124,64)"/>
<path d="M0 0 C4.82360189 -0.19294408 8.49646738 0.24252386 13 2 C13 2.66 13 3.32 13 4 C14.98 4 16.96 4 19 4 C19.33 4.66 19.66 5.32 20 6 C12.91296261 5.45484328 6.67203894 3.39081395 0 1 C0 0.67 0 0.34 0 0 Z " fill="#C76568" transform="translate(44,424)"/>
<path d="M0 0 C0.66 0.33 1.32 0.66 2 1 C-0.38146224 3.59228021 -2.94948743 5.39878018 -5.9375 7.25 C-7.21947266 8.06210937 -7.21947266 8.06210937 -8.52734375 8.890625 C-11.3629493 10.16283981 -12.14111014 9.88198587 -15 9 C-12.54732365 7.46931512 -10.08866106 5.95031377 -7.625 4.4375 C-6.92632812 3.99986328 -6.22765625 3.56222656 -5.5078125 3.11132812 C-3.70814097 2.01249022 -1.85677657 0.99932133 0 0 Z " fill="#B34746" transform="translate(341,251)"/>
<path d="M0 0 C0.33 0 0.66 0 1 0 C1.84800767 7.692641 2.12152487 15.26291674 2 23 C-0.07168402 21.32607931 -0.94044082 20.52106974 -1.2487793 17.82348633 C-1.19117432 17.00130615 -1.13356934 16.17912598 -1.07421875 15.33203125 C-1.01943359 14.43935547 -0.96464844 13.54667969 -0.90820312 12.62695312 C-0.83537109 11.69818359 -0.76253906 10.76941406 -0.6875 9.8125 C-0.62626953 8.87212891 -0.56503906 7.93175781 -0.50195312 6.96289062 C-0.34870489 4.64059043 -0.1808714 2.32028542 0 0 Z " fill="#C6302D" transform="translate(497,197)"/>
<path d="M0 0 C0.33 0 0.66 0 1 0 C1.33 2.64 1.66 5.28 2 8 C2.33 8 2.66 8 3 8 C4.10228696 12.40914783 4.07654536 16.48382401 4 21 C3.67 21 3.34 21 3 21 C3 19.35 3 17.7 3 16 C2.01 15.67 1.02 15.34 0 15 C0 10.05 0 5.1 0 0 Z " fill="#D76E6D" transform="translate(1,312)"/>
<path d="M0 0 C3.63 0.33 7.26 0.66 11 1 C11 1.66 11 2.32 11 3 C4.62694402 3.74507544 -1.58311325 4.10349817 -8 4 C-8 3.67 -8 3.34 -8 3 C-6.865625 2.87625 -5.73125 2.7525 -4.5625 2.625 C-3.386875 2.41875 -2.21125 2.2125 -1 2 C-0.67 1.34 -0.34 0.68 0 0 Z " fill="#C83433" transform="translate(434,426)"/>
<path d="M0 0 C-1.4317521 5.01113235 -3.98445693 6.94469549 -8 10 C-8 8.35 -8 6.7 -8 5 C-7.34 5 -6.68 5 -6 5 C-5.67 4.01 -5.34 3.02 -5 2 C-2 0 -2 0 0 0 Z " fill="#CD5F62" transform="translate(478,405)"/>
<path d="M0 0 C4.56283954 1.35651986 5.69091874 2.95910779 8 7 C10.57183314 9.27537692 10.57183314 9.27537692 13 11 C12.67 11.66 12.34 12.32 12 13 C9.96166576 11.7260411 7.96147874 10.38938077 6 9 C6 8.34 6 7.68 6 7 C5.01 7 4.02 7 3 7 C2.01 4.69 1.02 2.38 0 0 Z " fill="#C53134" transform="translate(464,82)"/>
<path d="M0 0 C0.33 1.98 0.66 3.96 1 6 C-4.66153846 4.52307692 -4.66153846 4.52307692 -6.375 1.875 C-6.58125 1.25625 -6.7875 0.6375 -7 0 C-3.98968256 -0.93423645 -3.13349732 -1.04449911 0 0 Z " fill="#D35358" transform="translate(43,418)"/>
<path d="M0 0 C2.87335143 5.74670287 0.69599197 13.1700276 -1 19 C-1.33 19 -1.66 19 -2 19 C-2.11252453 12.89867013 -1.98678883 7.03037619 -1 1 C-0.67 0.67 -0.34 0.34 0 0 Z " fill="#C85958" transform="translate(492,360)"/>
<path d="M0 0 C0.33 0 0.66 0 1 0 C3.20372285 13.22233713 3.20372285 13.22233713 0.484375 17.23828125 C-0.00546875 17.81964844 -0.4953125 18.40101563 -1 19 C-1.10655578 12.55929529 -0.96205088 6.37358711 0 0 Z " fill="#DD8385" transform="translate(3,153)"/>
<path d="M0 0 C0.99 0 1.98 0 3 0 C2.01 3.3 1.02 6.6 0 10 C-0.66 10 -1.32 10 -2 10 C-2.33 10.66 -2.66 11.32 -3 12 C-2.40075776 7.80530429 -1.42500059 3.99000166 0 0 Z " fill="#C86864" transform="translate(13,108)"/>
<path d="M0 0 C0.99 0 1.98 0 3 0 C3 0.66 3 1.32 3 2 C0.03 3.65 -2.94 5.3 -6 7 C-6.33 5.02 -6.66 3.04 -7 1 C-4.69 1.33 -2.38 1.66 0 2 C0 1.34 0 0.68 0 0 Z " fill="#FAE7E3" transform="translate(233,313)"/>
<path d="M0 0 C0 0.99 0 1.98 0 3 C-2.046875 4.640625 -2.046875 4.640625 -4.75 6.25 C-5.63171875 6.79140625 -6.5134375 7.3328125 -7.421875 7.890625 C-10 9 -10 9 -14 8 C-9.38 5.36 -4.76 2.72 0 0 Z " fill="#B94443" transform="translate(283,286)"/>
<path d="M0 0 C0.66 1.32 1.32 2.64 2 4 C-2.455 5.485 -2.455 5.485 -7 7 C-7.66 6.34 -8.32 5.68 -9 5 C-6.03 3.35 -3.06 1.7 0 0 Z " fill="#C23A3F" transform="translate(325,261)"/>
<path d="M0 0 C-1.78809697 1.17213045 -3.58059125 2.33755526 -5.375 3.5 C-6.37273437 4.1496875 -7.37046875 4.799375 -8.3984375 5.46875 C-11 7 -11 7 -13 7 C-13 6.34 -13 5.68 -13 5 C-12.34 5 -11.68 5 -11 5 C-11 4.34 -11 3.68 -11 3 C-4.03571429 -1.41964286 -4.03571429 -1.41964286 0 0 Z " fill="#FDE3DE" transform="translate(336,255)"/>
<path d="M0 0 C1.1351555 3.4054665 0.84899821 4.31723087 -0.25 7.625 C-0.62898438 8.81996094 -0.62898438 8.81996094 -1.015625 10.0390625 C-2 12 -2 12 -5 13 C-3.91343356 8.06866002 -2.8990762 4.21683811 0 0 Z " fill="#C35C5F" transform="translate(489,379)"/>
<path d="M0 0 C0.99 0 1.98 0 3 0 C3.25 5.625 3.25 5.625 1 9 C0.34 9 -0.32 9 -1 9 C-0.67 6.03 -0.34 3.06 0 0 Z " fill="#C33233" transform="translate(8,128)"/>
<path d="M0 0 C0.66 0.33 1.32 0.66 2 1 C-3.96583144 8.66742597 -3.96583144 8.66742597 -9 10 C-7.61811547 6.78956118 -6.07578097 4.95063635 -3.375 2.75 C-2.74335938 2.22921875 -2.11171875 1.7084375 -1.4609375 1.171875 C-0.73777344 0.59179688 -0.73777344 0.59179688 0 0 Z " fill="#DC9494" transform="translate(34,80)"/>
<path d="M0 0 C3.96 1.98 7.92 3.96 12 6 C12 6.66 12 7.32 12 8 C12.66 8.33 13.32 8.66 14 9 C13.01 9 12.02 9 11 9 C11 8.34 11 7.68 11 7 C10.43410156 6.89042969 9.86820313 6.78085938 9.28515625 6.66796875 C8.55167969 6.50941406 7.81820312 6.35085937 7.0625 6.1875 C6.33160156 6.03667969 5.60070312 5.88585937 4.84765625 5.73046875 C4.23792969 5.48941406 3.62820312 5.24835938 3 5 C2.67 4.01 2.34 3.02 2 2 C1.34 2 0.68 2 0 2 C0 1.34 0 0.68 0 0 Z " fill="#F4C8C2" transform="translate(244,190)"/>
<path d="M0 0 C0.70640625 0.28746094 1.4128125 0.57492188 2.140625 0.87109375 C2.67171875 1.09925781 3.2028125 1.32742187 3.75 1.5625 C3.75 1.8925 3.75 2.2225 3.75 2.5625 C-0.21 2.5625 -4.17 2.5625 -8.25 2.5625 C-8.25 1.5725 -8.25 0.5825 -8.25 -0.4375 C-4.94564916 -1.56127697 -3.1993138 -1.33304742 0 0 Z " fill="#C83736" transform="translate(453.25,74.4375)"/>
<path d="M0 0 C2 2 2 2 2 5 C-0.5 6.6875 -0.5 6.6875 -3 8 C-3.33 7.01 -3.66 6.02 -4 5 C-2.0625 2.3125 -2.0625 2.3125 0 0 Z " fill="#D53135" transform="translate(476,400)"/>
<path d="M0 0 C1.98 0 3.96 0 6 0 C5.67 1.32 5.34 2.64 5 4 C5.66 4.33 6.32 4.66 7 5 C6.01 5.495 6.01 5.495 5 6 C2.96855359 5.06553465 0.96466413 4.06775224 -1 3 C-0.67 2.01 -0.34 1.02 0 0 Z " fill="#CA393D" transform="translate(215,170)"/>
<path d="M0 0 C0.33 0 0.66 0 1 0 C1 1.65 1 3.3 1 5 C2.32 4.67 3.64 4.34 5 4 C5 4.99 5 5.98 5 7 C3.35 7.66 1.7 8.32 0 9 C0 6.03 0 3.06 0 0 Z " fill="#FBDED9" transform="translate(188,334)"/>
<path d="M0 0 C-3.48720616 4.3590077 -6.72760915 4.94552183 -12 6 C-4.89473684 -1.63157895 -4.89473684 -1.63157895 0 0 Z " fill="#B33F3E" transform="translate(214,330)"/>
<path d="M0 0 C2 3 2 3 1.625 6.1875 C1.41875 7.115625 1.2125 8.04375 1 9 C-0.32 8.67 -1.64 8.34 -3 8 C-3 6.35 -3 4.7 -3 3 C-2.34 3 -1.68 3 -1 3 C-0.67 2.01 -0.34 1.02 0 0 Z " fill="#D84E51" transform="translate(484,104)"/>
<path d="M0 0 C0.33 1.32 0.66 2.64 1 4 C0.360625 4.433125 -0.27875 4.86625 -0.9375 5.3125 C-3.26746003 6.91239177 -3.26746003 6.91239177 -4 10 C-4.66 10 -5.32 10 -6 10 C-4.6302836 6.00499382 -2.74277578 3.19990508 0 0 Z " fill="#D07271" transform="translate(24,90)"/>
<path d="M0 0 C0.33 0 0.66 0 1 0 C1.33 3.96 1.66 7.92 2 12 C1.01 12 0.02 12 -1 12 C-1.33 9.69 -1.66 7.38 -2 5 C-1.67 5 -1.34 5 -1 5 C-0.67 3.35 -0.34 1.7 0 0 Z " fill="#D72C27" transform="translate(494,316)"/>
<path d="M0 0 C0.66 0 1.32 0 2 0 C2 0.99 2 1.98 2 3 C-3.41538462 6.07692308 -3.41538462 6.07692308 -6.375 5.6875 C-6.91125 5.460625 -7.4475 5.23375 -8 5 C-2.25 2 -2.25 2 0 2 C0 1.34 0 0.68 0 0 Z " fill="#BF4A4B" transform="translate(239,312)"/>
<path d="M0 0 C-0.66 0 -1.32 0 -2 0 C-2.20625 0.639375 -2.4125 1.27875 -2.625 1.9375 C-4 4 -4 4 -7.125 4.75 C-8.548125 4.87375 -8.548125 4.87375 -10 5 C-9.01 4.67 -8.02 4.34 -7 4 C-7 3.01 -7 2.02 -7 1 C-3.375 -1.125 -3.375 -1.125 0 0 Z " fill="#C52F33" transform="translate(272,296)"/>
<path d="M0 0 C-1.23944276 0.86941494 -2.49207059 1.72005457 -3.75 2.5625 C-4.44609375 3.03816406 -5.1421875 3.51382812 -5.859375 4.00390625 C-8 5 -8 5 -10.265625 4.65234375 C-10.83796875 4.43707031 -11.4103125 4.22179687 -12 4 C-10.56988027 3.13353333 -9.13059381 2.28218171 -7.6875 1.4375 C-6.48673828 0.72400391 -6.48673828 0.72400391 -5.26171875 -0.00390625 C-3 -1 -3 -1 0 0 Z " fill="#B74144" transform="translate(298,280)"/>
<path d="M0 0 C-0.66 1.98 -1.32 3.96 -2 6 C-2.99 6 -3.98 6 -5 6 C-5 5.34 -5 4.68 -5 4 C-5.66 3.67 -6.32 3.34 -7 3 C-2.25 0 -2.25 0 0 0 Z " fill="#C74D4A" transform="translate(316,267)"/>
<path d="M0 0 C1.98 0.66 3.96 1.32 6 2 C6 2.66 6 3.32 6 4 C0.25 7 0.25 7 -2 7 C-2 6.34 -2 5.68 -2 5 C-1.01 5 -0.02 5 1 5 C0.67 3.35 0.34 1.7 0 0 Z " fill="#FCCAC6" transform="translate(338,247)"/>
<path d="M0 0 C5 2 5 2 10 4 C10 4.66 10 5.32 10 6 C6.38238619 5.67112602 4.44334967 5.37334709 1.625 3 C0 1 0 1 0 0 Z " fill="#BA403E" transform="translate(335,243)"/>
<path d="M0 0 C1.23556641 0.01740234 1.23556641 0.01740234 2.49609375 0.03515625 C3.32238281 0.04417969 4.14867187 0.05320312 5 0.0625 C5.63808594 0.07410156 6.27617187 0.08570313 6.93359375 0.09765625 C5.94359375 1.58265625 5.94359375 1.58265625 4.93359375 3.09765625 C1.80859375 3.28515625 1.80859375 3.28515625 -1.06640625 3.09765625 C-1.39640625 3.75765625 -1.72640625 4.41765625 -2.06640625 5.09765625 C-2.62890625 3.16015625 -2.62890625 3.16015625 -3.06640625 1.09765625 C-2.06640625 0.09765625 -2.06640625 0.09765625 0 0 Z " fill="#C63536" transform="translate(460.06640625,415.90234375)"/>
<path d="M0 0 C2 0 2 0 4.6875 2.25 C5.450625 3.1575 6.21375 4.065 7 5 C6.64453125 7.171875 6.64453125 7.171875 6 9 C4.99712471 7.68969568 3.99777175 6.37669473 3 5.0625 C2.443125 4.33160156 1.88625 3.60070312 1.3125 2.84765625 C0 1 0 1 0 0 Z " fill="#CD7679" transform="translate(19,402)"/>
<path d="M0 0 C0.33 0.66 0.66 1.32 1 2 C0.0625 4.125 0.0625 4.125 -1 6 C-2.32 6 -3.64 6 -5 6 C-4.75 4.125 -4.75 4.125 -4 2 C-1.9375 0.75 -1.9375 0.75 0 0 Z " fill="#C13E39" transform="translate(230,318)"/>
<path d="M0 0 C0 0.66 0 1.32 0 2 C-0.99 2 -1.98 2 -3 2 C-3 2.66 -3 3.32 -3 4 C-4.98 4.99 -6.96 5.98 -9 7 C-9.66 6.34 -10.32 5.68 -11 5 C-9.54462432 4.16151196 -8.08559627 3.32936066 -6.625 2.5 C-5.81289063 2.0359375 -5.00078125 1.571875 -4.1640625 1.09375 C-2 0 -2 0 0 0 Z " fill="#B74949" transform="translate(265,298)"/>
<path d="M0 0 C2.97 0.495 2.97 0.495 6 1 C6 1.99 6 2.98 6 4 C7.32 4.33 8.64 4.66 10 5 C9.01 5.495 9.01 5.495 8 6 C1.29411765 2.58823529 1.29411765 2.58823529 0 0 Z " fill="#B33836" transform="translate(246,190)"/>
<path d="M0 0 C-1.32 1.32 -2.64 2.64 -4 4 C-6.31 3.34 -8.62 2.68 -11 2 C-11 1.67 -11 1.34 -11 1 C-7.26562152 0.12132271 -3.83225427 -0.08912219 0 0 Z " fill="#D22C29" transform="translate(449,73)"/>
<path d="M0 0 C0.66 0.33 1.32 0.66 2 1 C2 2.65 2 4.3 2 6 C0.68 6.33 -0.64 6.66 -2 7 C-2 5.02 -2 3.04 -2 1 C-1.34 0.67 -0.68 0.34 0 0 Z " fill="#F5FBF7" transform="translate(213,320)"/>
<path d="M0 0 C2.97 0.495 2.97 0.495 6 1 C6 1.66 6 2.32 6 3 C7.32 3.33 8.64 3.66 10 4 C10 4.66 10 5.32 10 6 C6.40992874 4.66654496 3.20429093 3.1056769 0 1 C0 0.67 0 0.34 0 0 Z " fill="#BA484B" transform="translate(313,231)"/>
<path d="M0 0 C1.32 0 2.64 0 4 0 C4 0.66 4 1.32 4 2 C6.475 2.99 6.475 2.99 9 4 C8.34 4.66 7.68 5.32 7 6 C3.535 4.02 3.535 4.02 0 2 C0 1.34 0 0.68 0 0 Z " fill="#B64240" transform="translate(256,196)"/>
<path d="M0 0 C2.31 0.66 4.62 1.32 7 2 C7.33 3.32 7.66 4.64 8 6 C4.08597051 4.73058503 2.20927127 3.48832306 0 0 Z " fill="#D78384" transform="translate(29,414)"/>
<path d="M0 0 C-5.2734375 3.22265625 -5.2734375 3.22265625 -7 4 C-7.66 3.67 -8.32 3.34 -9 3 C-7 0 -7 0 -4.5 -0.75 C-2 -1 -2 -1 0 0 Z " fill="#C53135" transform="translate(292,285)"/>
<path d="M0 0 C-0.66 0 -1.32 0 -2 0 C-2.33 0.99 -2.66 1.98 -3 3 C-4.9375 3.8125 -4.9375 3.8125 -7 4 C-7.66 3.34 -8.32 2.68 -9 2 C-3.375 -1.125 -3.375 -1.125 0 0 Z " fill="#C13231" transform="translate(195,342)"/>
<path d="M0 0 C1.32 0.33 2.64 0.66 4 1 C1.36 2.65 -1.28 4.3 -4 6 C-4.33 5.01 -4.66 4.02 -5 3 C-3.68 3 -2.36 3 -1 3 C-0.67 2.01 -0.34 1.02 0 0 Z " fill="#FCDFDD" transform="translate(288,280)"/>
<path d="M0 0 C2.97 1.65 5.94 3.3 9 5 C9 5.33 9 5.66 9 6 C6.75 6.25 6.75 6.25 4 6 C1.6875 4.125 1.6875 4.125 0 2 C0 1.34 0 0.68 0 0 Z " fill="#F9D3CF" transform="translate(199,163)"/>
<path d="M0 0 C6.875 2.75 6.875 2.75 8 5 C5.36 4.67 2.72 4.34 0 4 C0 2.68 0 1.36 0 0 Z " fill="#FCD6D3" transform="translate(188,157)"/>
<path d="M0 0 C0.75 1.6875 0.75 1.6875 1 4 C-0.9375 6.75 -0.9375 6.75 -3 9 C-2.4140625 2.84765625 -2.4140625 2.84765625 -2 1 C-1.34 0.67 -0.68 0.34 0 0 Z " fill="#C63238" transform="translate(489,375)"/>
</svg>
